<svg xmlns="http://www.w3.org/2000/svg" viewBox="0 0 896 896"><path fill="#64FFDA" d="M579.67 201.58a.2.2 0 0 1 .1-.31c40.32-13.23 91.33-26.63 137.6-40.19 2.75-.8 10.6-3.19 13.58-1.57q2.86 1.56 3.82 3.99 1.31 3.29.45 6.72-2.94 11.71-22 95.23-7.1 31.12-12.2 56.38a.45.45 0 0 1-.76.23l-53.12-51.39a1.66 1.66 0 0 0-2.3 0l-95.55 91.22a.43.43 0 0 1-.72-.31v-36.66a2.8 2.77-17.1 0 1 1.24-2.31q1.51-1 2.69-2.11 24.87-23.51 74.32-72.18.45-.45 2.73-2.5a.79.79 0 0 0-.01-1.19l-49.62-42.69a.46.42-87.4 0 1-.1-.12q-.08-.16-.15-.24ZM215.33 583.05q8.54-5.29 14.54-13.96c9.34-13.48 15.3-29.65 19.4-45.83q6.84-26.93 9.92-55.78 6.85-64.16 2.14-125.72-3.74-48.87-15.45-94.39c-3.75-14.55-9.07-30.02-16.17-43.56q-7.87-14.97-20.53-25.01a.28.28 0 0 1 0-.44c6.78-5.49 18-3.92 25.43-.94q7.08 2.84 14.34 7.55 3.48 2.25 12.2 10.63 11.17 10.72 19.14 17.7c28.62 25.01 61.75 47.76 96.09 62.59q29.39 12.7 61.12 19.88c23.64 5.34 46.69 8.75 72.37 12.24a4.74 4.72-15.6 0 1 3.04 1.7c5.2 6.37 10.22 12.18 16.82 16.88a2.34 2.29-87.8 0 1 .69.76q.95 1.68.97 3.91.34 39.63.39 86.51.01 4.88-.34 7.77a4.13 4.07 67.1 0 1-.79 1.98q-9.51 12.56-11.98 15.88c-1.25 1.68-4.1 5.03-6.53 6.91-1.77 1.37-5.67 1.53-7.59 1.97q-60.59 13.96-119.4 27.4-2.75.63-4.31 1.9a354.318 354.318 0 0 1-24.45 18.13q-35.59 24.07-64.1 49.09-7.49 6.57-26.81 24.43-1.39 1.28-7.32 6.17c-13.11 10.79-27.83 10.87-42.8 4.13a.27.27 0 0 1-.03-.48Z"/><path fill="#64FFDA" d="M248.26 335.48c-10.03.36-19.43 6.36-25.64 13.9-12.33 14.96-14.54 36.67-8.26 54.59 5.66 16.14 17.07 27.22 34.04 30.23a.71.71 0 0 1 .58.72q-.74 22.86-4.21 48.81c-2.99 22.36-6.85 43.58-14.77 63.52q-4.29 10.8-10.77 18.2c-6.29 7.17-15.71 8.59-22.9 1.94q-6.55-6.04-11.77-15.94-8.98-17-14.21-35.76-12.23-43.89-16.42-89.66-6.49-70.97 2.7-141.11 1.44-11.04 5.22-29.59 4.28-20.98 12.15-40.06c3.58-8.67 9.53-19.12 17.3-24.26 12.29-8.13 24.07 8.38 28.58 17.46q7.99 16.1 12.19 30.7 12.74 44.31 16.85 95.57a.68.68 0 0 1-.66.74ZM725.91 403.72a.16.15 77.7 0 0 .14-.22c-7.56-17.98-15.88-40.5-24.53-61.01-1.09-2.58-2.11-6.08-.09-8.54 3.79-4.61 7.53-3.35 11.83-.93q39.36 22.11 60.29 33.42 39.3 21.24 68.86 37.86c3.89 2.19 7.26 3.62 11.28 5.76 4.1 2.19 6.76 6.26 3.85 10.73q-.88 1.37-4.6 3.63-31.37 19.14-52.45 32.04c-27.83 17.02-55.54 33.9-83.03 50.51q-6.05 3.66-12.16 6.5a1.88 1.87 50.3 0 1-1.9-.18c-5.29-3.82-3.76-9.83-1.79-15.16q11.27-30.34 24.86-65.88a.31.3-79.3 0 0-.28-.42H549.27a.79.78 0 0 1-.79-.78v-26.91a.43.42 0 0 1 .43-.42h177ZM508.66 491.13c9.21.08 17.95-5.8 23.93-12.5a1.42 1.41-46.8 0 1 2.04-.07l105.56 103.65a1.76 1.73-80.4 0 1 .39.56l1.12 2.52a.74.74 0 0 0 1.23.19l54.38-61.24a.88.88 0 0 1 1.36.05q.12.15.23.62 1.65 6.72 3.44 15.76 12.59 63.4 26.24 130.54c1.27 6.24-2.51 13.47-9.87 11.05q-.01-.01-2.45-.66-63.11-16.9-130.18-34.6a.63.63 0 0 1-.3-1.04l37.79-39.92a.44.44 0 0 0-.03-.63q-4.36-3.88-11.65-10.8c-24.54-23.31-53.63-53.38-77.13-76.37q-15.43-15.09-26.49-26.16a.56.55 67.5 0 1 .39-.95Z"/><path fill="#64FFDA" d="M461.87 494.27a.51.51 0 0 1 .6.64q-5.35 19.23-8.8 36.77-1.32 6.69-1.32 14.07-.01 61.73.35 82.99.1 5.67 3.05 12.29 6.85 15.34 23.05 19.38 2.25.57 9.7.55 59.03-.14 79.68-.03 4.91.02 8.94-3.02a1.88 1.87 40 0 1 1.99-.17q4.93 2.51 10.55 3.87 18.34 4.42 66.03 17.05a.18.18 0 0 1 .09.3q-10.7 11.26-22.8 20.68c-13.45 10.49-28.15 17.12-44.78 19.82q-5.94.97-19.43.97-52.88-.01-75.31.17-20.45.18-27.35-1.32c-17.92-3.9-32.68-11.73-45.67-25.18q-27.66-28.64-28.2-70.85-.28-22.46-.2-72.75.01-7.63-1.73-14.21c-1.67-6.32-4.55-15.69-7.71-23.24a.66.66 0 0 1 .47-.9l78.8-17.88Z"/></svg>