<svg xmlns="http://www.w3.org/2000/svg" viewBox="0 0 150 150"><path fill="#64FFDA" d="M75.08 28.16q2.17 0 2.62.01a1.81 1.81 0 0 1 1.65 1.23l2.41 7.27a.91.91 0 0 0 .63.6l5.91 1.54a.88.88 0 0 0 .85-.23l5.31-5.31a1.55 1.54-52.3 0 1 1.86-.24l4.66 2.69a1.92 1.91-67.7 0 1 .9 2.16l-1.95 7.47a.75.75 0 0 0 .2.74l3.27 3.28a.91.89 57.4 0 0 .92.21l6.74-2.23a1.38 1.37-26.3 0 1 1.56.52l3.16 4.58a1.93 1.92-39.9 0 1-.22 2.46l-5.35 5.35a.79.77 58.8 0 0-.19.81l1.66 5.01a.85.84-1.2 0 0 .58.55l7.3 1.91a1.67 1.67 0 0 1 1.25 1.51q.09 1.3.09 2.76 0 1.45-.09 2.75a1.67 1.67 0 0 1-1.25 1.51l-7.3 1.92a.85.84 1.2 0 0-.58.55l-1.65 5.01a.79.77-58.8 0 0 .19.81l5.35 5.34a1.93 1.92 39.9 0 1 .22 2.46l-3.16 4.59a1.38 1.37 26.2 0 1-1.56.52l-6.74-2.23a.91.89-57.4 0 0-.92.21l-3.27 3.28a.75.75 0 0 0-.2.74l1.95 7.47a1.92 1.91 67.7 0 1-.89 2.16l-4.66 2.69a1.55 1.54 52.3 0 1-1.86-.24l-5.32-5.31a.88.88 0 0 0-.85-.23l-5.9 1.55a.91.91 0 0 0-.63.6l-2.41 7.27a1.81 1.81 0 0 1-1.66 1.23q-.45.01-2.62.01-2.16.01-2.61-.01a1.81 1.81 0 0 1-1.66-1.23l-2.41-7.27a.91.91 0 0 0-.63-.6l-5.91-1.54a.88.88 0 0 0-.85.23l-5.31 5.31a1.55 1.54-52.3 0 1-1.86.24l-4.66-2.69a1.92 1.91-67.7 0 1-.9-2.16l1.95-7.47a.75.75 0 0 0-.2-.74l-3.27-3.28a.91.89 57.4 0 0-.92-.21l-6.74 2.23a1.38 1.37-26.3 0 1-1.56-.52l-3.16-4.58a1.93 1.92-39.9 0 1 .22-2.46l5.35-5.35a.79.77 58.8 0 0 .19-.81l-1.66-5.01a.85.84-1.2 0 0-.58-.55l-7.3-1.91a1.67 1.67 0 0 1-1.25-1.51q-.09-1.3-.09-2.76 0-1.45.09-2.75a1.67 1.67 0 0 1 1.25-1.51l7.3-1.91a.85.84 1.2 0 0 .58-.55l1.66-5.01a.79.77-58.8 0 0-.19-.81l-5.36-5.35a1.93 1.92 39.9 0 1-.22-2.46l3.16-4.58a1.38 1.37 26.2 0 1 1.56-.52l6.74 2.22a.91.89-57.4 0 0 .92-.21l3.27-3.28a.75.75 0 0 0 .2-.74l-1.95-7.47a1.92 1.91 67.7 0 1 .9-2.16l4.65-2.69a1.55 1.54 52.3 0 1 1.86.24l5.32 5.31a.88.88 0 0 0 .85.23l5.91-1.55a.91.91 0 0 0 .63-.6l2.4-7.27a1.81 1.81 0 0 1 1.66-1.23q.45-.01 2.62-.01Zm10.48 20.43q-11.39-4.32-21.09.21c-10.85 5.07-17.4 16.16-15.44 28.41q.81 5.11 2.55 8.02c5.79 9.71 16.09 15.14 27.4 13.51q4.05-.59 8.25-2.69a.51.51 0 0 0 .19-.76l-5.34-7.38a.86.84-10.9 0 0-.52-.34c-1.04-.21-2.08.7-3.01.78q-5.95.48-9.64-1.03-7.98-3.25-9.83-12.14-.86-4.1.54-7.9 4-10.87 16.28-11.48a1.35.98 39.8 0 1 .31.02l4.67.78a.88.88 0 0 0 .92-.43l4-6.93a.46.45 25.1 0 0-.24-.65Zm1.42 12.31q3.09 3.2 4.29 8.11a.33.33 0 0 0 .32.25h9.3a.26.26 0 0 0 .26-.31q-1.71-9.84-9.11-16.14a.82.82 0 0 0-1.24.21l-3.95 6.84a.87.87 0 0 0 .13 1.04Zm4.4 39.42.24.71a.63.62 68.8 0 1-.33.76q-4.41 2.05-7.95.47a2.7 2.68-35.7 0 0-1.36-.22c-11.92 1.31-22.32-1.18-30.7-10.1q-4.46-4.76-5.61-11.2a.66.65-12.7 0 1 .47-.74q.46-.13 1.22.16a.31.31 0 0 0 .33-.51l-4.01-4.01a.46.46 0 0 0-.77.21l-1.2 4.56a.35.35 0 0 0 .58.34q.56-.57 1.16-.64a.69.68 82.9 0 1 .74.58q.66 4.25 3.54 9c1 1.63 2.43 2.74 3.42 4.24a3.53 3.36 4.9 0 0 .62.7q13.03 11.32 30.12 8.8a1.25 1.19 49.9 0 1 .63.07l2.21.83a2.83 2.79-40.2 0 0 1.54.12q1.36-.28 5.16-1.3.96-.25 1.19.09.41.58.54 1.19a.3.3 0 0 0 .55.08l2.12-3.66a.44.44 0 0 0-.48-.65q-1.53.34-3.39-.42a.44.44 0 0 0-.58.54Zm-1.7-20.26q-1.22 2.37-2.13 3.14a1.02 1.01-37.5 0 0-.19 1.36l5.19 7.51a.38.37-40.6 0 0 .58.04q2.89-3.14 5.51-7.22l.1-.16q.04-.09.07-.17 1.8-4.51 2.68-8.69a.38.37-84.9 0 0-.37-.45l-9.13.15a1.02 1.01-88 0 0-1 .94q-.1 1.19-1.31 3.55Z"/></svg>