<svg xmlns="http://www.w3.org/2000/svg" viewBox="0 0 1344 1344"><g fill="none" stroke="#64FFDA" stroke-width="2"><path d="m632.1 856.07-1.29-.94a.85.85 0 0 1-.29-1.01l.51-1.25a1.3 1.3 0 0 0 .1-.5q.18-83.37-.09-161.87-.23-65.76-.19-258.5 0-43.26.22-52.5.31-12.98-.44-21.25c-.09-.94-1.16-1.43-1.23-2.08q-.04-.32.12-.69M570.44 959.95q-.99 3.33-.9 7.47.43 19.11 5.02 36.57a.78.77-27.4 0 1-.26.8q-7.28 6.01-13.53 10.63-13.37 9.86-29.66 12.2a.6.59-13.6 0 1-.65-.39q-4.51-12.86-8.54-25.47-.6-1.86-2.78-4.32" vector-effect="non-scaling-stroke"/></g><path fill="#64FFDA" d="M362.21 263.19c15.86-6.95 32.47-10.95 50.27-14.68q38.75-8.13 90.29-13.69 34.75-3.75 52.85-4.71c29.26-1.56 55.41-2.87 83.2-2.81q57.97.14 115.17 5.03 54.02 4.63 103.5 13.95 27.71 5.23 52.21 14.73 8.72 3.38 16.81 9.24c6.56 4.75 10.48 10.94 3.23 17.24q-4.22 3.66-9.47 6.55-13.36 7.34-30.23 12.24-18.62 5.41-31.3 7.95c-47.41 9.49-95.96 15.43-144.63 17.82q-25.51 1.26-43.23 1.81-73.17 2.27-148.46-3.78-33.91-2.72-64.98-7.87c-25.51-4.22-48.06-8.46-70.83-15.31-12.37-3.72-25.3-8.39-35.62-15.52-7.15-4.95-10.95-10.85-4.73-18.39q2.29-2.77 7.42-5.73 2.38-1.38 8.53-4.07Z"/><path fill="#64FFDA" d="m632.1 856.07-1.29-.94a.85.85 0 0 1-.29-1.01l.51-1.25a1.3 1.3 0 0 0 .1-.5q.18-83.37-.09-161.87-.23-65.76-.19-258.5 0-43.26.22-52.5.31-12.98-.44-21.25c-.09-.94-1.16-1.43-1.23-2.08q-.04-.32.12-.69 95.38-.06 189.71-14.05 40.47-6 77.55-16.67c16.85-4.85 44.86-14.72 51.03-33.2a.28.27-41.5 0 1 .53.03q.72 3.54 1.63 7.41 2.15 9.18 1.48 18.25c-.43 5.86-2.69 11.03-5.08 16.94q-1.24 3.05-4.17 8.79c-19.72 38.65-42.37 80.99-63.05 121.73q-12.21 24.05-27.06 53.48-28.79 57.04-38.14 75.68-5.53 11.03-25.46 49.92c-18.99 37.05-37.56 73.68-51.49 102.44q-15.04 31.05-28.54 57.74-7.9 15.62-18.8 26.93c-9.76 10.12-22.5 19.37-36.02 23.13q-10.5 2.92-21.54 2.04Z"/><path fill="#64FFDA" d="M629.52 355.48q-.16.37-.12.69c.07.65 1.14 1.14 1.23 2.08q.75 8.27.44 21.25-.22 9.24-.22 52.5-.04 192.74.19 258.5.27 78.5.09 161.87a1.3 1.3 0 0 1-.1.5l-.51 1.25a.85.85 0 0 0 .29 1.01l1.29.94q-12.02-1.31-21.73-8.21-14.11-10.02-25.15-22.85-7.99-9.29-13.8-21a.21.21 0 0 0-.39.09l-.59 155.85q-.99 3.33-.9 7.47.43 19.11 5.02 36.57a.78.77-27.4 0 1-.26.8q-7.28 6.01-13.53 10.63-13.37 9.86-29.66 12.2a.6.59-13.6 0 1-.65-.39q-4.51-12.86-8.54-25.47-.6-1.86-2.78-4.32-2.36-14.63-2.47-31.44c-.62-90.64-.52-176.39-.84-264.53a1.04.92-41.4 0 1 .03-.24q.69-3.74-.6-6.51-5.63-12.01-19.93-38.65c-13.75-25.62-27.66-53.67-41.73-80.69-13.11-25.18-27.63-55.43-41.04-80.78-5.49-10.39-10.51-21.02-15.09-29.4q-7.74-14.18-11.21-21.04c-4.89-9.66-9.81-18.3-14.53-28.26q-5.68-11.98-11.22-22.19c-3.89-7.16-8.34-17.2-11.63-23.09q-9.31-16.69-19.06-36.39-8.37-16.92-3.46-34.29.71-2.5.92-4.65a.23.23 0 0 1 .45-.05l.82 2.37a3.59 3.57-75.8 0 0 .73 1.23q7.79 8.65 18.83 14.1 11.21 5.52 16.17 7.29c29.05 10.36 59.33 17.06 89.86 21.63q87.22 13.04 175.38 13.62Z"/><path fill="#64FFDA" d="M519.14 997.44q2.18 2.46 2.78 4.32 4.03 12.61 8.54 25.47a.6.59-13.6 0 0 .65.39q16.29-2.34 29.66-12.2 6.25-4.62 13.53-10.63a.78.77-27.4 0 0 .26-.8q-4.59-17.46-5.02-36.57-.09-4.14.9-7.47.55 5.53.88 11.04 2.74 45.64 35 76.72 23.72 22.86 55.7 28.3c22.14 3.77 44.14-.29 64.96-10.04q16.32-7.64 28.88-19.86 18.06-17.57 34.61-34.39 12.64-12.84 33.84-34.16 18.98-19.1 51.67-51.83 57.07-57.12 78.53-78.97 3.09-3.14 3.49-3.57a.56.56 0 0 0 .06-.69l-10.22-16.09a.46.46 0 0 0-.71-.09q-20.82 19.87-42.23 41.91l-33.43 34.41q-1.5 1.58-85.39 86.7-26.94 27.34-41.74 41.74-8.48 8.25-21.11 16.04a2.11.01-22.7 0 1-1.83.78q-.59.24-1.68.78-19.08 9.44-40.48 9.39c-37.89-.08-69.34-24.21-82.72-59.05-5.79-15.06-6.48-32.81-6.52-49.77q-.05-19.79.15-70 .06-12.87-.51-24.46a.2.2 0 0 1 .35-.15q28.7 29.87 70.11 18.65a.63.63 0 0 1 .8.62q-.52 23.26-.1 47.53.28 15.94-.36 35.07-.06 1.84.68 6.46.99 6.2 6.55 11.04 1.33 1.15 2.07 1c5.35-1.15 8.2-2.89 12.57-7.47 11.53-12.05 35.83-36.05 64.02-64.46 63.04-63.52 90.14-90.29 133.61-135.14q1.7-1.76 3.71-4.3a.87.86-38.2 0 0 .11-.88q-2.11-4.77-3.12-6.36-30.15-47.77-48.63-77.38c-2.56-4.09-5.69-9.49-5.69-14.43-.01-8.66 4.86-16.12 12.51-19.82 4.37-2.11 11.44-2.03 15.52-2.18q2.2-.09 6.6-.35c85.03-5.06 178.66-11.59 268.38-17.7a.31.31 0 0 1 .33.35q-.68 5.23-.93 6.36-10.31 45.95-19.18 87.28-3.64 16.93-22.21 98.76c-5.33 23.5-10.24 50.35-16.62 78.34q-2.24 9.81-10.86 49.7c-.9 4.19-2.57 10.32-5.09 13.72-5.69 7.68-17.61 7.58-24.5 1.43q-3.63-3.23-5.87-6.88-12.74-20.72-30.2-48.74a.6.6 0 0 0-.94-.1c-29.37 30.34-59.09 59.92-88.13 89.25q-43.47 43.92-87.29 87.83-32.3 32.37-76.06 47.92c-38.59 13.73-81.46 13.48-119.12-2.21-14.47-6.02-28.85-14.11-41.53-24.32q-50.19-40.4-61.99-105.79Z"/></svg>