<svg xmlns="http://www.w3.org/2000/svg" viewBox="0 0 150 150"><g fill="none" stroke="#7dd4f3" stroke-width="2"><path d="m67.39 90.68-3.13.42a1.67 1.62-65.9 0 0-.8.32c-2.41 1.83-1.67 7.32-1.66 9.84a3.26 3.1-56.1 0 0 .18 1.06q1.26 3.52 5.75 6.13a.71.64-26.3 0 0 .36.1l10.5.1a.86.83-31.7 0 1 .36.08c2.23 1.04 1.77 4.6 1.64 6.88a.58.58 0 0 0 .99.45l7.87-7.7" vector-effect="non-scaling-stroke"/><path d="M89.52 107.18q-7.14-.1-14.26-.28-6.59-.17-6.74-6.65-.11-4.5-.15-9.07M92.6 77.3v-8.09a4.91 4.83-25.5 0 1 1.13-3.11c4.24-5.12 6.12-10.46 5.27-17.28-1.15-9.22-8.41-17.05-17.82-17.95q-6.69-.64-11.29 1.44-11.6 5.25-12.31 18.91-.23 4.39 1.5 7.91 6.78 13.75 23.34 12.41a1.75 1.68-28 0 1 1.16.33l8.03 5.94a.63.62-72 0 0 .99-.51" vector-effect="non-scaling-stroke"/><path d="M57.85 68.27q-7.55.25-14.87.08c-4.76-.1-6.03 1.97-6.12 6.65q-.06 2.87-.03 9.79c.02 4.44 3.54 5.1 7.11 4.97a.68.67 88.8 0 1 .7.68v8.66a.25.24-22.7 0 0 .42.17l6.37-6.37a3.78 3.71 18.3 0 1 2.15-1.06q14.43-1.89 16.72-15.72a.8.8 0 0 0-.49-.88q-5.87-2.29-10.49-6.88" vector-effect="non-scaling-stroke"/><path d="M54.856 93.864a.57.57 0 0 0-.007-.806l-.029-.028a.57.57 0 0 0-.806.007l-10.71 10.899a.57.57 0 0 0 .007.806l.029.028a.57.57 0 0 0 .806-.007l10.71-10.899M79.59 36.78h-2.82a1.2 1.2 0 0 0-1.2 1.21v.66a17.52 1.78 89.8 0 0 1.84 17.51h1.66a17.52 1.78 89.8 0 0 1.72-17.53v-.66a1.2 1.2 0 0 0-1.2-1.19" vector-effect="non-scaling-stroke"/><path d="M81.74 61.87a3.44 3.44 0 0 0-3.44-3.44 3.44 3.44 0 0 0-3.44 3.44 3.44 3.44 0 0 0 3.44 3.44 3.44 3.44 0 0 0 3.44-3.44M53.93 77.35a.51.51 0 0 0-.51-.51h-9.3a.51.51 0 0 0-.51.51v1a.51.51 0 0 0 .51.51h9.3a.51.51 0 0 0 .51-.51v-1M65.01 82.39a.36.36 0 0 0-.36-.36H43.99a.36.36 0 0 0-.36.36v1.84a.36.36 0 0 0 .36.36h20.66a.36.36 0 0 0 .36-.36v-1.84M104.93 92.24a3.86 3.86 0 0 0-3.86-3.86H75.39a3.86 3.86 0 0 0-3.86 3.86v7.38a3.86 3.86 0 0 0 3.86 3.86h25.68a3.86 3.86 0 0 0 3.86-3.86v-7.38" vector-effect="non-scaling-stroke"/><path d="M88.13 92.75a.67.67 0 0 0-.668-.671l-10-.018a.67.67 0 0 0-.672.67v.54a.67.67 0 0 0 .668.67l10 .018a.67.67 0 0 0 .671-.67l.001-.54M99.388 96.52a.29.29 0 0 0-.29-.29l-22.14.04a.29.29 0 0 0-.29.29l.004 1.96a.29.29 0 0 0 .29.29l22.14-.04a.29.29 0 0 0 .29-.29l-.004-1.96" vector-effect="non-scaling-stroke"/></g><path fill="#64FFDA" d="m67.39 90.68-3.13.42a1.67 1.62-65.9 0 0-.8.32c-2.41 1.83-1.67 7.32-1.66 9.84a3.26 3.1-56.1 0 0 .18 1.06q1.26 3.52 5.75 6.13a.71.64-26.3 0 0 .36.1l10.5.1a.86.83-31.7 0 1 .36.08c2.23 1.04 1.77 4.6 1.64 6.88a.58.58 0 0 0 .99.45l7.87-7.7c4.42.3 12.62.65 15.68-.45q4.5-1.63 4.69-7.36.19-6.1.07-8.73a.67.66 86 0 1 .6-.7q7.1-.65 7.82 6.09.23 2.14-.11 9.28-.24 5.02-5.71 5.81a.72.71 85.8 0 0-.61.71v5.64a.3.3 0 0 1-.52.21l-6.48-6.47a1.36 1.33-22.1 0 0-.95-.39H89.07a1.67 1.62 21.6 0 0-1.18.49q-2.73 2.75-5.63 5.58-1.83 1.79-1.61 4.38a.29.29 0 0 1-.49.24l-12.27-12.27a2 1.98 65.1 0 0-1.56-.58q-3.82.28-6.07-2.81a1.61 1.6-18.2 0 0-1.29-.65H46.11a.92.92 0 0 0-.65.27l-4.67 4.67a.3.3 0 0 1-.51-.22V93.28a.65.64 3.5 0 0-.57-.64q-2.89-.33-4.79-3.44-1.18-1.93-1.18-6.13c0-7.82-1.4-16.38 7.04-17.9a.93.93 0 0 0 .76-.76q1.26-7.76 7.68-12.37a1.43 1.43 0 0 0 .6-1.06q.38-5.01 3.3-9.9a.75.75 0 0 1 .84-.34q.12.03.14.03a.86.85-72.4 0 0 .78-.41c1.5-2.5 2.9-5.03 4.76-6.92q7.58-7.65 18.08-7.94 8.4-.23 15 4.32c11.66 8.04 14.3 22.63 7.89 34.83a.48.47 28.8 0 0 .19.64l.03.01a.47.47 0 0 0 .64-.19q2.45-4.63 2.89-6.75 1.66-8.12-.68-15.96a.36.36 0 0 1 .43-.45c3.33.82 6.82 3.1 8.98 5.81q6.64 8.35 1.96 19.08a.09.03-73.2 0 1-.02.03l-2.8 4.23a2.09 2.07-27.9 0 0-.35 1.12q-.03 2.96 0 9.78.01 2.09-1.95 4.23a.47.47 0 0 1-.76-.09l-.83-1.51a.94.93 40 0 1-.07-.77q.81-2.45.29-6.87a.63.62-3.7 0 0-.62-.54H95.71a.6.6 0 0 0-.6.6v3.83a1.03 1.03 0 0 1-1.64.83l-7.79-5.76a.72.69-27.7 0 0-.48-.14l-10.67.81a.45.44-3.5 0 0-.41.45q.03 2.84-1.11 5.22a1.48 1.43-87.4 0 1-.79.75q-5.31 2.12-4.83 7.64ZM92.6 77.3v-8.09a4.91 4.83-25.5 0 1 1.13-3.11c4.24-5.12 6.12-10.46 5.27-17.28-1.15-9.22-8.41-17.05-17.82-17.95q-6.69-.64-11.29 1.44-11.6 5.25-12.31 18.91-.23 4.39 1.5 7.91 6.78 13.75 23.34 12.41a1.75 1.68-28 0 1 1.16.33l8.03 5.94a.63.62-72 0 0 .99-.51Zm-34.75-9.03q-7.55.25-14.87.08c-4.76-.1-6.03 1.97-6.12 6.65q-.06 2.87-.03 9.79c.02 4.44 3.54 5.1 7.11 4.97a.68.67 88.8 0 1 .7.68v8.66a.25.24-22.7 0 0 .42.17l6.37-6.37a3.78 3.71 18.3 0 1 2.15-1.06q14.43-1.89 16.72-15.72a.8.8 0 0 0-.49-.88q-5.87-2.29-10.49-6.88-6.95-7.75-6.7-17.85c.07-2.82 1.34-6.55 1.52-8.64a.43.43 0 0 0-.38-.47l-.09-.01a.44.43 4.2 0 0-.49.42c-.08 2.47-1.4 4.54-1.59 6.95q-.84 10.96 6.26 19.51Zm38.21 2.8q2.49-2.01 3.84-3.93.64-.92.16-1.18a.24.24 0 0 0-.31.07l-3.71 5.02a.01.01 0 0 0 .02.02ZM54.856 93.864a.57.57 0 0 0-.007-.806l-.029-.028a.57.57 0 0 0-.806.007l-10.71 10.899a.57.57 0 0 0 .007.806l.029.028a.57.57 0 0 0 .806-.007l10.71-10.899Z"/><path fill="#faf9f7" d="M92.6 77.3a.63.62-72 0 1-.99.51l-8.03-5.94a1.75 1.68-28 0 0-1.16-.33q-16.56 1.34-23.34-12.41-1.73-3.52-1.5-7.91.71-13.66 12.31-18.91 4.6-2.08 11.29-1.44c9.41.9 16.67 8.73 17.82 17.95.85 6.82-1.03 12.16-5.27 17.28a4.91 4.83-25.5 0 0-1.13 3.11v8.09ZM79.59 36.78h-2.82a1.2 1.2 0 0 0-1.2 1.21v.66a17.52 1.78 89.8 0 0 1.84 17.51h1.66a17.52 1.78 89.8 0 0 1.72-17.53v-.66a1.2 1.2 0 0 0-1.2-1.19Zm2.15 25.09a3.44 3.44 0 0 0-3.44-3.44 3.44 3.44 0 0 0-3.44 3.44 3.44 3.44 0 0 0 3.44 3.44 3.44 3.44 0 0 0 3.44-3.44Z"/><path fill="#64FFDA" d="M79.59 36.78a1.2 1.2 0 0 1 1.2 1.19v.66a17.52 1.78 89.8 0 1-1.72 17.53h-1.66a17.52 1.78 89.8 0 1-1.84-17.51v-.66a1.2 1.2 0 0 1 1.2-1.21h2.82Z"/><path fill="#64FFDA" d="M81.74 61.87a3.44 3.44 0 0 1-3.44 3.44 3.44 3.44 0 0 1-3.44-3.44 3.44 3.44 0 0 1 3.44-3.44 3.44 3.44 0 0 1 3.44 3.44Z"/><path fill="#faf9f7" d="M57.85 68.27q.56.51 1.47.09 4.62 4.59 10.49 6.88a.8.8 0 0 1 .49.88q-2.29 13.83-16.72 15.72a3.78 3.71 18.3 0 0-2.15 1.06l-6.37 6.37a.25.24-22.7 0 1-.42-.17v-8.66a.68.67 88.8 0 0-.7-.68c-3.57.13-7.09-.53-7.11-4.97q-.03-6.92.03-9.79c.09-4.68 1.36-6.75 6.12-6.65q7.32.17 14.87-.08Zm-3.92 9.08a.51.51 0 0 0-.51-.51h-9.3a.51.51 0 0 0-.51.51v1a.51.51 0 0 0 .51.51h9.3a.51.51 0 0 0 .51-.51v-1Zm11.08 5.04a.36.36 0 0 0-.36-.36H43.99a.36.36 0 0 0-.36.36v1.84a.36.36 0 0 0 .36.36h20.66a.36.36 0 0 0 .36-.36v-1.84Z"/><path fill="#64FFDA" d="M53.93 78.35a.51.51 0 0 1-.51.51h-9.3a.51.51 0 0 1-.51-.51v-1a.51.51 0 0 1 .51-.51h9.3a.51.51 0 0 1 .51.51v1ZM83.26 77.48v4.53a.47.46 0 0 1-.47.46h-7.24a.46.46 0 0 1-.45-.54l.66-3.76a.8.8 0 0 1 .72-.65l6.3-.48a.44.44 0 0 1 .48.44ZM65.01 84.23a.36.36 0 0 1-.36.36H43.99a.36.36 0 0 1-.36-.36v-1.84a.36.36 0 0 1 .36-.36h20.66a.36.36 0 0 1 .36.36v1.84ZM89.52 107.18q-7.14-.1-14.26-.28-6.59-.17-6.74-6.65-.11-4.5-.15-9.07-.01-7.56 8.27-7.58 12.51-.03 25.1.06c6.21.05 7.37 4.22 7.19 9.74q-.01.25-.08 6.84c-.06 6.12-4.08 6.94-9.73 6.92q-4.8-.01-9.6.02Zm15.41-14.94a3.86 3.86 0 0 0-3.86-3.86H75.39a3.86 3.86 0 0 0-3.86 3.86v7.38a3.86 3.86 0 0 0 3.86 3.86h25.68a3.86 3.86 0 0 0 3.86-3.86v-7.38Z"/><path fill="#faf9f7" d="M104.93 99.62a3.86 3.86 0 0 1-3.86 3.86H75.39a3.86 3.86 0 0 1-3.86-3.86v-7.38a3.86 3.86 0 0 1 3.86-3.86h25.68a3.86 3.86 0 0 1 3.86 3.86v7.38Zm-16.8-6.87a.67.67 0 0 0-.668-.671l-10-.018a.67.67 0 0 0-.672.67v.54a.67.67 0 0 0 .668.67l10 .018a.67.67 0 0 0 .671-.67l.001-.54Zm11.258 3.77a.29.29 0 0 0-.29-.29l-22.14.04a.29.29 0 0 0-.29.29l.004 1.96a.29.29 0 0 0 .29.29l22.14-.04a.29.29 0 0 0 .29-.29l-.004-1.96Z"/><path fill="#faf9f7" d="M67.39 90.68q.57.41.98.5.04 4.57.15 9.07.15 6.48 6.74 6.65 7.12.18 14.26.28l-.07 1.18-7.87 7.7a.58.58 0 0 1-.99-.45c.13-2.28.59-5.84-1.64-6.88a.86.83-31.7 0 0-.36-.08l-10.5-.1a.71.64-26.3 0 1-.36-.1q-4.49-2.61-5.75-6.13a3.26 3.1-56.1 0 1-.18-1.06c-.01-2.52-.75-8.01 1.66-9.84a1.67 1.62-65.9 0 1 .8-.32l3.13-.42Z"/><path fill="#64FFDA" d="M88.13 93.29a.67.67 0 0 1-.672.669l-10-.018a.67.67 0 0 1-.668-.67v-.54a.67.67 0 0 1 .672-.67l10 .018a.67.67 0 0 1 .668.67v.54Z"/><path fill="#faf9f7" d="M44.146 104.763a.57.57 0 0 1-.806.007l-.029-.028a.57.57 0 0 1-.007-.806l10.71-10.899a.57.57 0 0 1 .806-.007l.029.028a.57.57 0 0 1 .007.806l-10.71 10.899Z"/><path fill="#64FFDA" d="M99.392 98.48a.29.29 0 0 1-.29.29l-22.14.04a.29.29 0 0 1-.29-.29l-.004-1.96a.29.29 0 0 1 .29-.29l22.14-.04a.29.29 0 0 1 .29.29l.004 1.96Z"/></svg>