<svg xmlns="http://www.w3.org/2000/svg" viewBox="0 0 1536 1536"><path fill="#64FFDA" d="M772.93 923.14q-1.64-18.69-8.68-37.08-11.99-31.32-14.3-36.45-21.99-48.86-32.26-69.82-15.59-31.79-28.23-58.5-7.27-15.35-12.03-27.43c-12.5-31.73-19.94-65.19-20.02-99.4q-.29-121-.05-392.71c.02-24.29 10.8-44.3 33.97-53.18 4.07-1.56 9.92-2.24 14.82-2.23q68.85.08 132.6.01c25.31-.04 43.79 20.89 47.27 44.67q.95 6.51.94 14.24-.37 283.26-.06 376.24.19 57.38-20.2 109.51-6.1 15.6-18.67 39.75c-16.71 32.12-33.96 66.13-48.45 98.59q-17.68 39.6-24.73 80.39-1.2 6.92-1.18 7.56.12 4.02-.19 5.86a.28.28 0 0 1-.55-.02Zm-62.45-330.31a.2.19 50.4 0 0-.02.27q6.93 8.79 8.67 10.9c18.95 23.02 28.84 49.76 35.18 78.45 7.84 35.48 12.02 71.19 14.01 107.05q2.23 40.42 2.77 76.63c.2 13.41 1.56 26.76 1.57 39.38a.31.31 0 0 0 .31.31h.01a.26.26 0 0 0 .27-.25q.75-13.37 1.15-20.55c1.17-20.63 1.29-33 2.26-65.02q.51-17.03 3.15-58.87c1.08-17.18 3.1-35.15 5.22-50.36q3.47-24.93 10.4-49.13 4.97-17.34 13.25-33.2 9.92-18.97 25.32-34.79a.38.38 0 0 0 0-.54l-.01-.01a.41.4-41.3 0 0-.56-.03q-10.26 8.9-24.04 10.3c-13.18 1.34-18.02-6.89-20.21-18.25q-2.46-12.74-4.38-28.12-4.39-35.06-10.05-90.63c-.96-9.36-1.99-16.79-2.9-25.71q-.01-.12-.16-.23a.04.04 0 0 0-.07.03q-.06 3.38-.13 4.05-1.94 19.2-4.14 43.48-4.88 53.85-8.99 89.8-1.04 9.08-2.93 15.36c-2.69 8.9-9.45 11.41-18.59 10.96-9.17-.45-20.02-4.02-25.96-11.28a.25.25 0 0 0-.36-.03l-.04.03ZM687.46 1060.31a.73.72 32.9 0 1 .26 1.19l-51.33 51.32a2.15 2.14-54.6 0 1-2.45.42c-16.21-7.83-32.68-17.7-46.73-26.91q-41.55-27.22-77.55-64.94-40.02-41.93-69.05-91.48c-11.56-19.73-22.84-41.46-31.46-63.78q-11.13-28.85-18.96-58.52c-4.51-17.09-7.31-32.64-9.99-50.54q-9.14-61.24.13-125.52 3.91-27.12 10.96-51.26 31.21-106.84 110.66-184.08 39.91-38.81 90.07-65.46 5.78-3.07 29.7-14.4a.43.43 0 0 1 .61.39l-.19 18.2a1.2 1.19-24.5 0 1-.3.79q-1.23 1.35-2.65 2.23c-46.93 28.75-88.51 65.66-121.43 109.8-17.79 23.87-32.68 49.43-44.11 76.88q-11.22 26.93-18.12 52.93-20.32 76.6-6.13 154.83c2.97 16.38 6.51 34.3 11.13 49.79q6.97 23.34 17.61 49.72c22.67 56.2 58.23 106.7 102.8 147.68q1.96 1.81 14.83 13.12c16.74 14.73 35.68 27.54 54.51 38.79 14.96 8.93 31.48 16.87 47.44 24.51q6.1 2.92 9.74 4.3Z"/><path fill="#64FFDA" d="M546.46 1226.78q3.25-2.83 5.93-5.39 34.17-32.68 88.62-84.88 37.56-36.01 71.38-70.15 18.44-18.61 78.56-79.16 29.41-29.62 62.09-65.65 38.6-42.56 71.28-94.95 36.96-59.23 59.99-127 28.41-83.59 23.08-171.85-2.49-41.28-15.95-81.93-8.83-26.71-23.97-52.27c-9.84-16.61-19.17-30.47-30.79-42.81-3.12-3.33-9.85-10.27-14.33-16.09q-2.42-3.14-5.44-5.66a.1.1 0 0 1 .11-.17q88.84 39.36 150.31 114.58 7.44 9.09 19.87 26.32 10.86 15.05 18.19 27.4c27.95 47.09 47.76 97.98 57.32 151.59 4.59 25.76 6.27 53.79 5.95 80.04-.32 27.11-3.87 52.89-9.6 79.38q-16.87 77.88-62.37 144.35-2.58 3.77-13.15 18.29-7.84 10.75-13.93 17.71-22.19 25.34-39.22 40.92-38.07 34.86-81.41 61.32-19.33 11.8-47.07 25.46-21.72 10.7-49.24 20.93-38.14 14.19-75.05 24.76-6.76 1.94-8.8 3.07-3.93 2.17-7.51 5.53a.7.7 0 0 0 .32 1.19c5.65 1.31 12.2 3.62 19.08 5.5q17.27 4.7 65.99 17.53c21.81 5.75 41.74 10.27 61.48 15.57q12.73 3.42 32.3 8.13 14.97 3.6 32.26 8.23a.09.09 0 0 1-.03.18q-40.87.72-87.21.65-86.49-.11-271.99-.02-44.82.02-66.92-.3a.2.2 0 0 1-.13-.35Zm415.13-861.22q15.69 13.44 23.1 21.01 10.02 10.23 17.56 18.93 28.02 32.34 47.02 68.67 20.63 39.45 32.19 81.38c18.43 66.87 22.22 139.39 6.61 207.96q-7.31 32.11-18.4 61.13-27.3 71.37-77.18 128.51c-17.16 19.65-36.91 39.48-56.66 55.67-25.06 20.56-44.29 34.47-73.66 56.1q-3.47 2.55-7.17 4.25a.15.15 0 0 0-.08.2l.11.26a.36.35 66.5 0 0 .48.19c4.45-2.1 12.23-5.39 17.95-8.28q31.01-15.66 62.17-37.18 24.87-17.17 52.27-42.95 27.68-26.04 48.63-56.08 21.1-30.26 37.1-64.36 36.2-77.15 37.46-163.46.7-47.83-7.25-90.47-8.6-46.07-27.42-91.49-10.9-26.31-25.05-48.92-12.9-20.62-32.52-45.88-3.48-4.49-6.22-7.37c-5.59-5.87-10.81-12.07-16.75-18q-16.07-16.03-33.83-30.03a.07.07 0 0 0-.05-.02q-.34-.02-.42.19a.1.08 38 0 0 .01.04Z"/><path fill="#64FFDA" d="M446.25 751.79c7.53 14.26 14.73 27.03 24.28 40.3q20.53 28.51 40.13 49.01 35.9 37.53 77.89 68.35 12.84 9.43 31.36 21.64c37.08 24.46 78.11 44.97 120.64 57.1q7.6 2.17 16.18 3.86a.09.09 0 0 1 .05.15l-60.93 60.93a1.81 1.79-54.2 0 1-2.07.35q-50.73-25.11-95.08-59.58-4.46-3.47-18.37-15.65c-50.31-44.05-88.64-98.76-113.46-160.74-8.37-20.9-13.66-40.06-20.91-65.6a.16.16 0 0 1 .29-.12Z"/></svg>