<svg xmlns="http://www.w3.org/2000/svg" viewBox="0 0 896 896"><path fill="#44c7b9" d="M409.33 226.93a.44.44 0 0 1-.57.42c-19.47-6-36.03-20.22-40.71-40.5-4.57-19.78 2.23-39.59 17.07-53.5q16.53-15.49 39.4-15.54 22.04-.06 29.9-.12 21.02-.16 26.15.75 15.82 2.81 28.9 14.05 18.79 16.15 20.02 39.49 1.01 19.13-10.58 34.87c-6.53 8.88-19.62 18.25-30.47 20.28a.87.87 0 0 1-1.03-.86v-13.6a.88.87-12.9 0 1 .5-.79q17.19-8.14 23.57-25.87c2.82-7.81 2.3-18.29-.98-26.09-6.02-14.33-17.46-22.37-32.29-25.54q-4.11-.87-14.09-.83-27.5.13-28.11.11-13.9-.27-21.39 1.67c-16.83 4.37-30.66 19.56-31.33 37.48-.66 17.72 9.77 31.49 25.23 38.93a1.43 1.43 0 0 1 .81 1.29v13.9Z"/><path fill="#44c7b9" d="M448.18 152.42c9.73 0 18.64.67 27.65 3.43q8.53 2.63 14.48 9.88 1.84 2.25 2.39 3.78a2.72 2.62 36.4 0 1 .15.88q-.08 12.61-.12 23.83c-.01 5.37-3.11 10.09-8.66 10.89q-3.38.48-5.77.52a.86.86 0 0 0-.85.86v35.17a.58.57-87.1 0 1-.63.58q-16.78-1.64-28.6-1.63-11.82.01-28.6 1.65a.58.57 87.1 0 1-.63-.57l-.04-35.17a.86.86 0 0 0-.85-.86q-2.39-.04-5.77-.52c-5.55-.79-8.65-5.51-8.67-10.88q-.05-11.22-.14-23.83a2.72 2.62-36.4 0 1 .15-.88q.55-1.53 2.39-3.78 5.94-7.26 14.47-9.89c9-2.78 17.91-3.45 27.65-3.46ZM330.596 217.652a21.09 21.09 0 0 1-4.511 29.483l-79.062 58.076a21.09 21.09 0 0 1-29.482-4.511l-.817-1.112a21.09 21.09 0 0 1 4.511-29.483l79.062-58.076a21.09 21.09 0 0 1 29.482 4.511l.817 1.112ZM676.98 301.363a20.56 20.56 0 0 1-28.772 4.198l-79.15-58.998a20.56 20.56 0 0 1-4.198-28.771l1.04-1.395a20.56 20.56 0 0 1 28.772-4.198l79.15 58.998a20.56 20.56 0 0 1 4.198 28.771l-1.04 1.395ZM350.42 270.5c41.22-18.81 86.06-24.91 130.84-18.77 40.96 5.62 78.08 23.05 110.51 48.52q1.18.93 11.74 10.02c16.84 14.51 31.25 32.01 42.51 50.48 31.69 52.03 41.17 111.98 27.6 171.31-8.99 39.29-29.32 75.69-57.08 105.02q-45 47.54-107.35 65.34-40.77 11.64-84.98 7.06-52.6-5.44-97.02-33.74c-28.44-18.11-53.77-42.22-72.55-70.23q-47.61-70.98-35.97-160c7.4-56.6 38.86-108.42 83.03-143.89q4.26-3.42 13.41-9.86c11.86-8.35 23.42-15.84 35.31-21.26Zm211.24 376.14q35.54-24.56 57.04-58.91 33.83-54.06 31.14-117.25c-2.84-66.65-40.79-129.06-98.1-163.21-22.69-13.51-48.7-23.43-74.78-27.34-32.89-4.94-67.08-1.73-98.34 10.26q-20.83 7.99-38.11 18.83-57.25 35.93-82.24 99.48-7.93 20.18-10.64 40.32-10.67 79.11 33.72 144.31c15.76 23.15 35.44 41.69 58.32 57.15q10.96 7.41 28.04 15 21.58 9.6 42.98 14.01c35.04 7.22 72.41 4.69 105.94-8.8q14.26-5.74 19.46-8.42 9.31-4.81 20.13-11.61c1.88-1.18 3.4-2.41 5.44-3.82ZM308.26 267.44l8.42 11.16a.69.69 0 0 1-.13.97l-22.92 17.3a.69.69 0 0 1-1-.18l-8.11-13.04a.69.69 0 0 1 .2-.93l22.6-15.44a.69.69 0 0 1 .94.16ZM613.3 285.31l-8.27 11.95a1.13 1.13 0 0 1-1.61.26l-22.72-17.03a1.13 1.13 0 0 1-.25-1.54l7.66-11.07a1.13 1.13 0 0 1 1.57-.29l23.33 16.15a1.13 1.13 0 0 1 .29 1.57Z"/><path fill="#44c7b9" d="M345.56 317.05q14.34-9.04 27.41-14.3 48.16-19.38 97.81-13.5 33.52 3.98 67.78 21.64 4.36 2.24 8.93 5.31c3.4 2.28 8.04 4.95 11.87 7.74q22.44 16.34 40.36 38.98 18.03 22.76 27.59 48.35 13.8 36.97 12.47 73.98-1.46 40.34-20.08 81.07c-2.33 5.09-5.75 9.98-8.41 14.5-10.19 17.28-24.67 32.92-40.38 46.85-8.58 7.62-19.25 14.45-29.46 20.48q-10.04 5.93-25.47 12.26-10.69 4.39-28.35 8.41c-35.77 8.14-70.65 4.22-105.34-8.17-28.86-10.31-53.61-28.05-74.96-50.73q-30.52-32.4-43.28-74.22-19-62.31 3.72-123.22 2.06-5.52 6.68-15.83c5.82-12.97 14.34-25.42 22.22-35.26q14.45-18.05 34.05-34.15 4.4-3.62 14.84-10.19Zm107.425-19.96a4.62 4.62 0 0 0-4.627-4.611l-1.2.002a4.62 4.62 0 0 0-4.612 4.628l.069 39.48a4.62 4.62 0 0 0 4.627 4.612l1.2-.002a4.62 4.62 0 0 0 4.612-4.628l-.068-39.48Zm-92.019 21.606a5.03 5.03 0 0 0-6.851-1.913l-.47.265a5.03 5.03 0 0 0-1.914 6.851l18.203 32.305a5.03 5.03 0 0 0 6.851 1.913l.47-.265a5.03 5.03 0 0 0 1.914-6.851l-18.203-32.305Zm183.136 5.981a5 5 0 0 0-1.83-6.83l-.624-.36a5 5 0 0 0-6.83 1.83l-18.34 31.766a5 5 0 0 0 1.83 6.83l.624.36a5 5 0 0 0 6.83-1.83l18.34-31.766ZM451.13 345h-6.29a2.15 2.15 0 0 0-2.15 2.15v117.97a1.86 1.86 0 0 1-1.04 1.67q-10.37 5.05-8.93 16.66c.84 6.75 6.97 11.86 13.69 12.14q9.43.39 14.66-8.28c1.55-2.59 1.77-5.37 1.12-8.11a2.51 2.5 64 0 1 .87-2.54c22.59-17.9 44.16-33.72 66.09-50.66q13.19-10.18 30.07-22.6 22.49-16.55 30.33-22.19a3.09 3.08 69.1 0 0 1.27-2.85q-.42-3.73-3.84-6.04a1.82 1.79 61.6 0 0-1.01-.31c-2.73 0-7.16 3.75-9.66 5.56q-30.17 21.79-80.75 60.23-25.81 19.62-34.93 26.08-3.45 2.44-5.67 3.62a1.43 1.43 0 0 1-2.1-1.26v-119.5a1.74 1.73 90 0 0-1.73-1.74Zm-125.708 65.19a4.55 4.55 0 0 0-1.698-6.207L290.04 384.77a4.55 4.55 0 0 0-6.207 1.697l-.594 1.043a4.55 4.55 0 0 0 1.698 6.207l33.685 19.213a4.55 4.55 0 0 0 6.207-1.697l.594-1.043Zm285.417-23.797a4.66 4.66 0 0 0-6.37-1.694l-33.965 19.689a4.66 4.66 0 0 0-1.695 6.369l.632 1.09a4.66 4.66 0 0 0 6.37 1.694l33.965-19.689a4.66 4.66 0 0 0 1.695-6.369l-.632-1.09ZM303.94 479.79a4.66 4.66 0 0 0-4.652-4.668l-35.72-.062a4.66 4.66 0 0 0-4.668 4.652l-.002 1.34a4.66 4.66 0 0 0 4.652 4.668l35.72.062a4.66 4.66 0 0 0 4.668-4.652l.002-1.34Zm332.391.202a4.64 4.64 0 0 0-4.623-4.656l-37.38-.13a4.64 4.64 0 0 0-4.656 4.624l-.005 1.44a4.64 4.64 0 0 0 4.623 4.656l37.38.13a4.64 4.64 0 0 0 4.656-4.624l.005-1.44ZM319.16 558.09c2.97-1.44 7.65-3.42 7.46-6.99-.33-6.35-6.42-5.39-10.23-3.2q-11.95 6.87-30.84 17.92c-4.02 2.35-2.28 7.28.57 9.78a2.3 2.29 53 0 0 2.51.36c3.94-1.84 8.2-5.11 12.03-7.27q6.41-3.62 13.12-7.62 3.3-1.96 5.38-2.98Zm292.887 14.885a4.58 4.58 0 0 0-1.654-6.262l-33.984-19.779a4.58 4.58 0 0 0-6.262 1.655l-.754 1.296a4.58 4.58 0 0 0 1.654 6.262l33.983 19.779a4.58 4.58 0 0 0 6.263-1.655l.754-1.296ZM353.21 641.82q1.89 1.76 3.79 2.2a3.14 3.12 25.5 0 0 3.19-1.12q2.34-3.02 3.71-5.49 5.85-10.55 15.31-26.46c2.17-3.66 3.03-8.46-2.01-9.92-4.23-1.23-5.96 1.1-8 4.73q-7.51 13.36-14.02 25.09c-1.55 2.78-4.96 8.19-1.97 10.97Zm171.784-38.576a5.11 5.11 0 0 0-6.95-1.98l-.507.283a5.11 5.11 0 0 0-1.98 6.95l18.19 32.679a5.11 5.11 0 0 0 6.95 1.98l.506-.282a5.11 5.11 0 0 0 1.98-6.95l-18.19-32.68ZM453.31 625.67a4.58 4.58 0 0 0-4.58-4.58h-1.44a4.58 4.58 0 0 0-4.58 4.58v38.16a4.58 4.58 0 0 0 4.58 4.58h1.44a4.58 4.58 0 0 0 4.58-4.58v-38.16Z"/><path fill="#44c7b9" d="M232.5 770.65a.23.23 0 0 1-.18-.37c24.53-31.43 49.17-64.35 74.35-95.38a1.27 1.27 0 0 1 1.71-.24q16.29 11.35 32.44 19.09a.83.83 0 0 1 .16 1.39l-2.72 2.2a.18.18 0 0 0-.05.05l-20.19 25.76a.43.42 18.8 0 0 .34.68h260.41a.29.29 0 0 0 .25-.43q-1.62-2.7-1.97-3.16-13.21-17.58-15.94-20.9-1.85-2.27-3.94-4.32a.41.4-38 0 1 .08-.64q11.57-6.73 24.68-15.2 3.24-2.1 6.14-4.65a1.6 1.59 51.3 0 1 2.34.26q.38.53 9.88 12.39 13.71 17.1 42.17 54.08 3.62 4.7 22.18 28.5.29.38-.06.7-.18.17-.58.17-224.49.05-431.5.02Z"/></svg>