<svg xmlns="http://www.w3.org/2000/svg" viewBox="0 0 548 147"><path fill="#64FFDA" d="m177.61 110.5-11.52.02a.69.69 0 0 1-.64-.44l-27.92-74.03a.36.36 0 0 1 .34-.49h21.65a.81.8-10.7 0 1 .75.51q.79 2.04 16.42 43.45.61 1.6.87 1.6.24 0 .84-1.6Q193.87 38.05 194.65 36a.81.8 10.4 0 1 .75-.51l21.65-.08a.36.36 0 0 1 .34.49l-27.63 74.13a.69.69 0 0 1-.64.45q-5.9 0-11.51.02ZM324.55 90.42a.16.16 0 0 0-.18.26l17.46 19.1a.37.37 0 0 1-.27.62h-26.12a1.33 1.3-19.1 0 1-1.02-.48L299.31 91.8a1.3 1.3 0 0 1-.2-1.34l5.75-13.91a1.81 1.77-30.4 0 0 .1-.37q.31-2.1 2.07-4.3a1.1 1.08 15.9 0 1 .73-.4q.07-.01 9.02.15 8.86.17 10.02-8.14a3.15 3.06 44.2 0 0-.03-1.02q-.79-4.17-4.32-6.12-2.16-1.19-7.55-.94-.99.05-32.17.02a.58.58 0 0 1-.58-.58V36.13a.68.68 0 0 1 .67-.68q14.53-.22 35.66.02 8.57.1 15.08 4.42c20.74 13.77 15.45 44.09-8.39 50.64a.67.65 49 0 1-.47-.04q-.05-.03-.15-.07ZM426.58 79.58q-5.13 4.92-11.12 10.56a.28.27 23.2 0 0 .19.47h36.54a.55.54-90 0 1 .54.55v18.78a.58.57 0 0 1-.58.57h-63.51a.58.58 0 0 1-.58-.58V90.99a1.28 1.27-21.4 0 1 .41-.94q20.13-18.34 25.73-23.7 5.14-4.91 11.13-10.55a.28.27 23.2 0 0-.19-.47H388.6a.55.54-90 0 1-.54-.55V36a.58.57 0 0 1 .58-.57h63.51a.58.58 0 0 1 .58.58v18.94a1.28 1.27-21.4 0 1-.42.94q-20.13 18.34-25.73 23.69ZM62.01 64.86q-.25 0-.85 1.6-15.44 41.42-16.22 43.46a.81.8 10.4 0 1-.75.52l-21.62.09a.36.36 0 0 1-.34-.49L49.8 35.98a.69.69 0 0 1 .64-.44l11.5-.02 11.5-.04a.69.69 0 0 1 .64.45l27.91 73.92a.36.36 0 0 1-.34.49l-21.62.01a.81.8-10.7 0 1-.75-.51q-.79-2.03-16.42-43.39-.6-1.59-.85-1.59Z"/><rect width="21.7" height="74.8" x="109.09" y="35.63" fill="#64FFDA" rx=".38"/><path fill="#64FFDA" d="M249.27 64.82q-.25 0-.84 1.6-15.48 41.42-16.27 43.46a.81.8 10.5 0 1-.74.51l-21.63.07a.36.36 0 0 1-.34-.48l27.64-74.05a.69.69 0 0 1 .64-.44q5.89-.01 11.5-.01 5.61-.01 11.5-.03a.69.69 0 0 1 .65.45l27.85 73.96a.36.36 0 0 1-.34.49l-21.63-.01a.81.8-10.6 0 1-.75-.51q-.79-2.04-16.38-43.41-.61-1.6-.86-1.6Z"/><rect width="21.74" height="74.8" x="355.73" y="35.63" fill="#64FFDA" rx=".26"/><path fill="#64FFDA" d="M483.03 62.21h34.89a.34.34 0 0 1 .34.34v19a.34.34 0 0 1-.34.34h-34.91a.34.34 0 0 0-.34.34v8.15a.34.34 0 0 0 .34.34h38.52a.34.34 0 0 1 .34.34v19.02a.34.34 0 0 1-.34.34h-38.79a.34.34 0 0 1-.23-.09l-21.38-19.14a.34.34 0 0 1-.11-.25V55.38a.34.34 0 0 1 .11-.25l21.28-19.45a.34.34 0 0 1 .23-.09h38.89a.34.34 0 0 1 .34.34v19.05a.34.34 0 0 1-.34.34h-38.5a.34.34 0 0 0-.34.34v6.21a.34.34 0 0 0 .34.34Z"/></svg>